<svg width="142" height="26" viewBox="0 0 142 26" fill="none" xmlns="http://www.w3.org/2000/svg">
<path d="M25.145 15.3114C24.4783 13.8273 24.5239 12.1571 23.9143 10.6166C22.7568 7.69265 20.463 5.77287 17.5247 4.71582C16.5704 4.37261 15.6056 3.90805 13.5193 3.66669C12.9407 3.59975 11.0693 3.27794 10.3693 2.54349C9.51697 1.64926 8.74949 0.863854 7.175 0.321299C2.52722 -1.28029 2.97551 3.66669 5.55677 2.88914C8.75809 1.92481 8.51924 4.89174 7.69779 5.69608C6.42535 6.94198 5.35203 7.61586 4.34732 9.19713C3.01459 11.2952 2.96541 13.535 2.12968 15.7741C1.33956 17.8914 -0.482236 19.6458 0.119872 22.1027C0.802896 24.8895 4.08593 25.2942 6.51261 25.5732C10.4426 26.0253 14.8406 26.0939 18.7932 25.8929C20.9192 25.7848 25.2759 25.4972 26.8415 23.999C27.4186 23.4466 27.8506 22.5415 27.9604 21.7575C28.3222 19.1682 26.1097 17.4588 25.1446 15.3106L25.145 15.3114ZM12.6832 14.0651C11.7686 14.6783 10.8464 13.7415 10.7666 12.84C10.6996 12.0827 11.0617 11.0268 11.949 10.95C13.4511 10.8203 13.897 13.2514 12.6832 14.0647V14.0651ZM21.1635 13.948C20.3536 14.4538 19.5317 13.526 19.377 12.7898C19.2334 12.1066 19.4659 10.9006 20.3083 10.7941C21.7736 10.6091 22.3086 13.233 21.1635 13.948Z" fill="white"/>
<path d="M139.119 19.8306C137.724 19.8306 136.656 19.4865 135.913 18.7983C135.171 18.1102 134.799 16.9965 134.799 15.4571V8.82908H132.816V5.7052H134.799V2.85296L138.467 2.47266V5.7052H141.455V8.82908H138.467V15.267C138.467 16.1363 138.847 16.5709 139.607 16.5709H141.129V19.8306H139.119Z" fill="white"/>
<path d="M123.466 20.1836C122.18 20.1836 121.003 19.8576 119.935 19.2057C118.884 18.5356 118.042 17.6482 117.408 16.5436C116.793 15.4208 116.485 14.1803 116.485 12.8221C116.485 11.8079 116.666 10.8572 117.028 9.96984C117.39 9.06436 117.888 8.2766 118.522 7.60655C119.156 6.91839 119.889 6.38416 120.722 6.00386C121.574 5.60545 122.488 5.40625 123.466 5.40625C124.698 5.40625 125.657 5.64167 126.345 6.11252C127.034 6.56526 127.568 7.17192 127.948 7.93252V5.70506H131.588V19.8304H128.03V17.5215C127.649 18.3183 127.106 18.9612 126.4 19.4501C125.712 19.9391 124.734 20.1836 123.466 20.1836ZM124.064 16.8695C124.879 16.8695 125.576 16.6884 126.155 16.3263C126.753 15.946 127.215 15.4479 127.541 14.8322C127.867 14.2165 128.03 13.5465 128.03 12.8221C128.03 12.0796 127.867 11.4005 127.541 10.7848C127.215 10.169 126.753 9.67103 126.155 9.29073C125.576 8.91043 124.879 8.72028 124.064 8.72028C123.285 8.72028 122.597 8.91043 121.999 9.29073C121.42 9.65292 120.967 10.1419 120.641 10.7576C120.315 11.3733 120.152 12.0524 120.152 12.7949C120.152 13.5012 120.315 14.1712 120.641 14.8051C120.967 15.4208 121.42 15.9188 121.999 16.2991C122.597 16.6794 123.285 16.8695 124.064 16.8695Z" fill="white"/>
<path d="M101.669 19.8299V0H105.336V7.6603C106.097 6.13911 107.518 5.37851 109.601 5.37851C110.615 5.37851 111.53 5.61393 112.344 6.08478C113.159 6.55563 113.802 7.22568 114.273 8.09493C114.744 8.96419 114.979 9.99643 114.979 11.1917V19.8299H111.312V12.0881C111.312 10.8566 111.032 9.96926 110.47 9.42598C109.909 8.86458 109.175 8.58389 108.27 8.58389C107.491 8.58389 106.803 8.86458 106.205 9.42598C105.626 9.96926 105.336 10.8566 105.336 12.0881V19.8299H101.669Z" fill="white"/>
<path d="M94.1599 20.1842C93.1458 20.1842 92.195 19.9941 91.3077 19.6138C90.4384 19.2335 89.6687 18.7083 88.9987 18.0383C88.3286 17.3501 87.8035 16.5623 87.4232 15.675C87.061 14.7695 86.8799 13.8006 86.8799 12.7684C86.8799 11.3921 87.1968 10.1516 87.8306 9.0469C88.4826 7.92411 89.3699 7.02769 90.4927 6.35764C91.6336 5.68759 92.9194 5.35257 94.35 5.35257C95.6358 5.33446 96.7858 5.56083 97.7999 6.03167C98.814 6.50252 99.6199 7.15446 100.218 7.9875L97.3924 10.2965C97.0665 9.8075 96.6409 9.41814 96.1157 9.12839C95.6087 8.83864 95.0382 8.69377 94.4044 8.69377C93.6257 8.69377 92.9466 8.88392 92.3671 9.26421C91.7876 9.6264 91.3348 10.1154 91.0088 10.7311C90.701 11.3468 90.5471 12.0259 90.5471 12.7684C90.5471 13.4928 90.71 14.1719 91.036 14.8057C91.3801 15.4214 91.8419 15.9194 92.4214 16.2997C93.019 16.6619 93.7072 16.843 94.4859 16.843C95.1921 16.843 95.7898 16.6891 96.2787 16.3812C96.7677 16.0553 97.1932 15.6478 97.5554 15.1588L100.218 17.4678C99.5475 18.3189 98.7144 18.989 97.7184 19.478C96.7405 19.9488 95.5543 20.1842 94.1599 20.1842Z" fill="white"/>
<path d="M83.8618 20.1834C83.1555 20.1834 82.5669 19.948 82.0961 19.4772C81.6434 19.0063 81.417 18.4449 81.417 17.793C81.417 17.1591 81.6434 16.6068 82.0961 16.136C82.5669 15.6651 83.1555 15.4297 83.8618 15.4297C84.568 15.4297 85.1475 15.6651 85.6003 16.136C86.053 16.6068 86.2794 17.1591 86.2794 17.793C86.2794 18.4449 86.053 19.0063 85.6003 19.4772C85.1475 19.948 84.568 20.1834 83.8618 20.1834Z" fill="white"/>
<path d="M70.6125 25.5058C70.2503 25.5058 69.8428 25.4877 69.3901 25.4515C68.9373 25.4153 68.5299 25.3428 68.1677 25.2342L68.711 21.73C69.218 21.8568 69.7704 21.9202 70.368 21.9202C71.0742 21.9202 71.6537 21.7119 72.1065 21.2954C72.5592 20.897 72.8852 20.3899 73.0844 19.7742L73.2745 19.1766L67.6787 5.70312H72.1065L74.8501 13.7709C75.1036 14.4953 75.3028 15.2468 75.4477 16.0255C75.5926 15.2468 75.7918 14.4953 76.0453 13.7709L78.7889 5.70312H83.1352L76.8874 20.7249C76.2898 22.1556 75.5111 23.3055 74.5513 24.1748C73.5915 25.0621 72.2785 25.5058 70.6125 25.5058Z" fill="white"/>
<path d="M53.2827 25.2633V5.70506H56.8956V7.98685C57.2759 7.20814 57.8101 6.58337 58.4982 6.11252C59.2045 5.64167 60.1734 5.40625 61.4048 5.40625C62.3827 5.40625 63.2882 5.60545 64.1212 6.00386C64.9724 6.38416 65.7149 6.91839 66.3487 7.60655C66.9825 8.2766 67.4806 9.06436 67.8428 9.96984C68.2049 10.8572 68.386 11.8079 68.386 12.8221C68.386 14.1803 68.0691 15.4208 67.4353 16.5436C66.8196 17.6482 65.9865 18.5356 64.9362 19.2057C63.8858 19.8576 62.7087 20.1836 61.4048 20.1836C60.1915 20.1836 59.2407 19.9663 58.5526 19.5316C57.8644 19.0789 57.3302 18.4813 56.9499 17.7388V25.2633H53.2827ZM60.8072 16.8695C61.5859 16.8695 62.265 16.6794 62.8445 16.2991C63.4421 15.9188 63.9039 15.4208 64.2299 14.8051C64.5559 14.1712 64.7189 13.5012 64.7189 12.7949C64.7189 12.0524 64.5559 11.3733 64.2299 10.7576C63.9039 10.1419 63.4421 9.65292 62.8445 9.29073C62.265 8.91043 61.5859 8.72028 60.8072 8.72028C60.0104 8.72028 59.3132 8.91043 58.7156 9.29073C58.1179 9.67103 57.6562 10.169 57.3302 10.7848C57.0042 11.4005 56.8412 12.0796 56.8412 12.8221C56.8412 13.5465 57.0042 14.2165 57.3302 14.8322C57.6562 15.4479 58.1179 15.946 58.7156 16.3263C59.3132 16.6884 60.0104 16.8695 60.8072 16.8695Z" fill="white"/>
<path d="M42.9812 20.1836C41.6954 20.1836 40.5183 19.8576 39.4499 19.2057C38.3995 18.5356 37.5574 17.6482 36.9236 16.5436C36.3079 15.4208 36 14.1803 36 12.8221C36 11.8079 36.1811 10.8572 36.5433 9.96984C36.9055 9.06436 37.4035 8.2766 38.0373 7.60655C38.6712 6.91839 39.4046 6.38416 40.2376 6.00386C41.0888 5.60545 42.0033 5.40625 42.9812 5.40625C44.2127 5.40625 45.1725 5.64167 45.8606 6.11252C46.5488 6.56526 47.083 7.17192 47.4633 7.93252V5.70506H51.1033V19.8304H47.5448V17.5215C47.1645 18.3183 46.6212 18.9612 45.9149 19.4501C45.2268 19.9391 44.2489 20.1836 42.9812 20.1836ZM43.5788 16.8695C44.3938 16.8695 45.091 16.6884 45.6705 16.3263C46.2681 15.946 46.7299 15.4479 47.0558 14.8322C47.3818 14.2165 47.5448 13.5465 47.5448 12.8221C47.5448 12.0796 47.3818 11.4005 47.0558 10.7848C46.7299 10.169 46.2681 9.67103 45.6705 9.29073C45.091 8.91043 44.3938 8.72028 43.5788 8.72028C42.8001 8.72028 42.112 8.91043 41.5143 9.29073C40.9348 9.65292 40.4821 10.1419 40.1561 10.7576C39.8302 11.3733 39.6672 12.0524 39.6672 12.7949C39.6672 13.5012 39.8302 14.1712 40.1561 14.8051C40.4821 15.4208 40.9348 15.9188 41.5143 16.2991C42.112 16.6794 42.8001 16.8695 43.5788 16.8695Z" fill="white"/>
</svg>
